<svg width="64" height="64" viewBox="8 8 48 48" fill="none" xmlns="http://www.w3.org/2000/svg">
  <defs>
    <linearGradient id="signal" x1="13" y1="13" x2="51" y2="51" gradientUnits="userSpaceOnUse">
      <stop offset="0" stop-color="#1ECAD3" />
      <stop offset="1" stop-color="#1F74F2" />
    </linearGradient>
  </defs>
  <path
    d="M11.88 28.09A20.5 20.5 0 0 1 29.86 11.61"
    stroke="url(#signal)"
    stroke-width="5.2"
    stroke-linecap="butt"
  />
  <path
    d="M34.14 11.61A20.5 20.5 0 0 1 52.12 28.09"
    stroke="url(#signal)"
    stroke-width="5.2"
    stroke-linecap="butt"
  />
  <path
    d="M11.88 35.91A20.5 20.5 0 0 0 29.86 52.39"
    stroke="url(#signal)"
    stroke-width="5.2"
    stroke-linecap="butt"
  />
  <path
    d="M34.14 52.39A20.5 20.5 0 0 0 52.12 35.91"
    stroke="url(#signal)"
    stroke-width="5.2"
    stroke-linecap="butt"
  />
  <path
    d="M12.8 32H21.3L25.25 28L29.95 40.05L35.2 18.8L39.35 32H51.2"
    stroke="url(#signal)"
    stroke-width="4.4"
    stroke-linecap="round"
    stroke-linejoin="round"
  />
  <circle cx="11.9" cy="32" r="2.55" stroke="#20C3D7" stroke-width="2.8" />
  <circle cx="52.1" cy="32" r="2.55" stroke="#2876F0" stroke-width="2.8" />
  <circle cx="21.38" cy="28.14" r="0.92" fill="#66D4F4" />
  <circle cx="22.63" cy="25.68" r="0.92" fill="#66D4F4" />
  <circle cx="24.44" cy="23.6" r="0.92" fill="#66D4F4" />
  <circle cx="26.69" cy="22.02" r="0.92" fill="#66D4F4" />
  <circle cx="29.27" cy="21.04" r="0.92" fill="#66D4F4" />
  <circle cx="32" cy="20.7" r="0.92" fill="#66D4F4" />
  <circle cx="42.96" cy="34.73" r="0.92" fill="#5AB8FF" />
  <circle cx="41.98" cy="37.31" r="0.92" fill="#5AB8FF" />
  <circle cx="40.4" cy="39.56" r="0.92" fill="#5AB8FF" />
  <circle cx="38.32" cy="41.37" r="0.92" fill="#5AB8FF" />
  <circle cx="35.86" cy="42.62" r="0.92" fill="#5AB8FF" />
  <circle cx="33.18" cy="43.24" r="0.92" fill="#5AB8FF" />
</svg>
